<?xml version="1.0" encoding="utf-8"?>
<!-- Generator: Adobe Illustrator 19.0.0, SVG Export Plug-In . SVG Version: 6.00 Build 0)  -->
<!DOCTYPE svg PUBLIC "-//W3C//DTD SVG 1.1//EN" "http://www.w3.org/Graphics/SVG/1.1/DTD/svg11.dtd">
<svg version="1.1" id="Layer_1" xmlns="http://www.w3.org/2000/svg" xmlns:xlink="http://www.w3.org/1999/xlink" x="0px" y="0px"
	 viewBox="0 0 500 251" style="enable-background:new 0 0 500 251;" xml:space="preserve">
<style type="text/css">
	.st0{fill:#FFFFFF;}
</style>
<g id="XMLID_2_">
	<g id="XMLID_63_">
		<path id="XMLID_64_" class="st0" d="M67.7189,70.3885c14.8207,0,26.5369,7.4733,26.5369,18.0832
			c0,6.7669-3.9612,11.7394-10.92,11.7394c-5.5353,0-10.2744-3.85-10.2744-8.6727c0-2.0142,0.359-8.5874-8.2562-8.5874
			c-6.3906,0-18.8143,6.3458-18.8143,15.4291c0,17.3316,44.7344,13.4993,44.7344,45.4883c0,15.833-13.4275,39.3588-49.2581,39.3588
			C28.2327,183.2272,0,173.8937,0,152.6787c0-7.7333,4.775-14.9987,14.1429-14.9987c4.4517,0,8.9997,3.4741,8.9997,8.0339
			c0,3.018-1.8174,5.6221-1.8174,7.8462c0,8.7123,5.6376,14.8834,19.318,14.8834c15.222,0,24.4007-10.6415,24.4007-18.0828
			c0-19.3454-42.0483-14.8935-42.0483-44.4754C22.9955,91.4868,38.639,70.3885,67.7189,70.3885z M476.7645,88.2555
			c-19.7354,0-35.0571,13.1611-35.0571,26.5333c0,24.0508,34.2509,18.5242,34.2509,34.2855c0,4.8826-7.0009,11.2104-16.9717,11.2104
			c-9.7846,0-11.7221-4.766-11.7221-7.7776c0-2.3026,1.3822-3.931,1.3822-6.337c0-4.5995-4.7538-7.4358-9.5122-7.4358
			c-7.165,0-11.3823,5.9302-11.3823,11.5358c0,12.6615,16.9811,22.9708,32.1219,22.9708c23.4084,0,37.4821-15.945,37.4821-27.7354
			c0-27.3432-36.4769-24.2915-36.4769-35.5455c0-6.5895,8.5996-10.4669,13.8946-10.4669c4.8465,0,4.6311,3.7825,4.6311,5.7803
			c0,3.3688,3.1235,8.4012,10.6554,8.4012c6.1423,0,9.9397-5.2786,9.9397-9.3735C500,93.5303,488.3624,88.2555,476.7645,88.2555z
			 M232.6201,92.7008c0,0-1.4269-2.6676-9.8456-2.6676c-15.9407,0-49.7607,20.2442-49.7607,52.41
			c0,16.6614,12.9967,31.1208,30.3481,31.1208c24.5826,0,32.7684-21.6757,32.7684-21.6757l-1.1176-19.4618
			c0,0-6.8707,25.362-27.4224,25.362c-7.4521,0-14.866-5.8643-14.866-17.6071c0-14.5405,14.2533-34.8974,31.881-34.8974
			c7.3244,0,9.279,3.8333,9.279,3.8333L232.6201,92.7008z M273.5405,167.9366c0,0,4.4343,5.6273,12.8531,5.6273
			c19.715,0,48.715-20.2442,48.715-52.41c0-16.6614-12.9967-31.1208-30.3481-31.1208c-24.5826,0-34.4745,21.5367-34.4745,21.5367
			l1.1004,19.6009c0,0,8.594-25.362,29.1458-25.362c7.4521,0,14.866,5.8643,14.866,17.6071
			c0,14.5405-13.5924,34.8974-31.2201,34.8974c-7.3244,0-11.6632-6.5327-11.6632-6.5327L273.5405,167.9366z M99.8805,143.1628
			c0,19.2601,15.1295,30.0439,29.5422,30.0439c23.9884,0,32.3177-20.2772,32.3177-20.2772l-4.5156-5.8862
			c0,0-8.828,11.5587-21.6931,11.5587c-8.5089,0-15.3081-8.5116-15.3081-17.4595c0-24.0464,23.428-34.5847,23.428-34.5847
			s5.3076,7.5286,13.1843,7.5286c7.0049,0,13.7409-4.7445,13.7409-11.7563c0-7.4927-6.1616-12.4856-14.7774-12.4856
			c-1.9575,0-4.7766,0.4169-4.7766,0.4169s-0.9147-5.2371,0.4496-15.577c1.7488-13.2543,6.8333-30.7213,15.9407-42.7598
			c9.7401-12.8747,18.5007-19.0864,29.9292-19.0864c12.3906,0,23.6463,10.3825,31.2761,27.4876
			c18.9289,42.4366,9.6666,115.2508,21.2554,163.7925c5.7918,24.2599,21.2973,46.7528,45.1365,46.7528
			s41.4673-15.2363,56.4386-65.2124c6.4101-21.3977,6.4497-21.6227,6.4497-21.6227s8.5575,9.8647,21.3809,9.8647
			c25.8794,0,46.1732-27.2269,46.1732-51.2011c0-19.1719-14.2982-33.6183-31.8564-33.6183
			c-27.7865,0-43.1155,22.6444-56.1674,69.0331c-12.3647,43.9464-21.0927,79.7193-40.7747,79.7193
			c-14.6489,0-22.3462-18.7721-26.6227-36.188c-10.7255-43.679-0.8045-121.5797-23.5102-166.9995
			c-8.2188-16.4406-28.0148-34.5174-50.1708-34.5174c-16.1877,0-32.4647,7.3703-42.9393,19.5172
			c-11.9585,13.8678-18.4897,32.4199-18.4897,52.992c0,10.9861,2.8648,21.1661,2.8648,21.1661S99.8805,110.4183,99.8805,143.1628z
			 M405.7062,119.2444c0,18.3102-10.2771,40.9237-29.3412,40.9237c-10.9323,0-14.8294-10.391-14.8294-10.391
			s3.4213-12.3895,6.3205-21.0774c3.1985-9.5843,11.0898-26.7055,24.3378-26.7055
			C401.1336,101.9941,405.7062,109.1917,405.7062,119.2444z"/>
	</g>
</g>
</svg>
